HIERARCHY
ROOT hip
{
  OFFSET 0 0 0
  CHANNELS 6 Xposition Yposition Zposition Zrotation Yrotation Xrotation
  JOINT abdomen
  {
    OFFSET 0 20.6881 -0.73152
    CHANNELS 3 Zrotation Xrotation Yrotation
    JOINT chest
    {
      OFFSET 0 11.7043 -0.48768
      CHANNELS 3 Zrotation Xrotation Yrotation
      JOINT neck
      {
        OFFSET 0 22.1894 -2.19456
        CHANNELS 3 Zrotation Xrotation Yrotation
        JOINT head
        {
          OFFSET -0.24384 7.07133 1.2192
          CHANNELS 3 Zrotation Xrotation Yrotation
          JOINT leftEye
          {
            OFFSET 4.14528 8.04674 8.04672
            CHANNELS 3 Zrotation Xrotation Yrotation
            End Site
            {
              OFFSET 1 0 0
            }
          }
          JOINT rightEye
          {
            OFFSET -3.6576 8.04674 8.04672
            CHANNELS 3 Zrotation Xrotation Yrotation
            End Site
            {
              OFFSET 1 0 0
            }
          }
        }
      }
      JOINT rCollar
      {
        OFFSET -2.68224 19.2634 -4.8768
        CHANNELS 3 Zrotation Xrotation Yrotation
        JOINT rShldr
        {
          OFFSET -8.77824 -1.95073 1.46304
          CHANNELS 3 Zrotation Xrotation Yrotation
          JOINT rForeArm
          {
            OFFSET -28.1742 -1.7115 0.48768
            CHANNELS 3 Zrotation Xrotation Yrotation
            JOINT rHand
            {
              OFFSET -22.5879 0.773209 7.07136
              CHANNELS 3 Zrotation Xrotation Yrotation
              JOINT rThumb1
              {
                OFFSET -1.2192 -0.487915 3.41376
                CHANNELS 3 Zrotation Xrotation Yrotation
                JOINT rThumb2
                {
                  OFFSET -3.37035 -0.52449 3.41376
                  CHANNELS 3 Zrotation Xrotation Yrotation
                  End Site
                  {
                    OFFSET -1.78271 -1.18214 1.43049
                  }
                }
              }
              JOINT rIndex1
              {
                OFFSET -7.75947 0.938293 5.60832
                CHANNELS 3 Zrotation Xrotation Yrotation
                JOINT rIndex2
                {
                  OFFSET -2.54057 -0.884171 1.56538
                  CHANNELS 3 Zrotation Xrotation Yrotation
                  End Site
                  {
                    OFFSET -1.62519 -0.234802 1.16502
                  }
                }
              }
              JOINT rMid1
              {
                OFFSET -8.24714 1.18213 3.41376
                CHANNELS 3 Zrotation Xrotation Yrotation
                JOINT rMid2
                {
                  OFFSET -3.10165 -0.590103 1.0647
                  CHANNELS 3 Zrotation Xrotation Yrotation
                  End Site
                  {
                    OFFSET -2.48547 -0.328903 0.83742
                  }
                }
              }
              JOINT rRing1
              {
                OFFSET -8.82822 0.546677 1.51678
                CHANNELS 3 Zrotation Xrotation Yrotation
                JOINT rRing2
                {
                  OFFSET -2.60934 -0.819778 -0.0198488
                  CHANNELS 3 Zrotation Xrotation Yrotation
                  End Site
                  {
                    OFFSET -2.33842 -0.294052 0.168128
                  }
                }
              }
              JOINT rPinky1
              {
                OFFSET -8.27202 -0.0477905 -0.4584
                CHANNELS 3 Zrotation Xrotation Yrotation
                JOINT rPinky2
                {
                  OFFSET -1.82734 -0.647385 -0.700984
                  CHANNELS 3 Zrotation Xrotation Yrotation
                  End Site
                  {
                    OFFSET -1.69225 -0.51767 -0.607171
                  }
                }
              }
            }
          }
        }
      }
      JOINT lCollar
      {
        OFFSET 2.68224 19.2634 -4.8768
        CHANNELS 3 Zrotation Xrotation Yrotation
        JOINT lShldr
        {
          OFFSET 8.77824 -1.95073 1.46304
          CHANNELS 3 Zrotation Xrotation Yrotation
          JOINT lForeArm
          {
            OFFSET 28.1742 -1.7115 0.48768
            CHANNELS 3 Zrotation Xrotation Yrotation
            JOINT lHand
            {
              OFFSET 22.5879 0.773209 7.07136
              CHANNELS 3 Zrotation Xrotation Yrotation
              JOINT lThumb1
              {
                OFFSET 1.2192 -0.487915 3.41376
                CHANNELS 3 Zrotation Xrotation Yrotation
                JOINT lThumb2
                {
                  OFFSET 3.37035 -0.52449 3.41376
                  CHANNELS 3 Zrotation Xrotation Yrotation
                  End Site
                  {
                    OFFSET 1.78271 -1.18214 1.43049
                  }
                }
              }
              JOINT lIndex1
              {
                OFFSET 7.75947 0.938293 5.60832
                CHANNELS 3 Zrotation Xrotation Yrotation
                JOINT lIndex2
                {
                  OFFSET 2.54057 -0.884171 1.56538
                  CHANNELS 3 Zrotation Xrotation Yrotation
                  End Site
                  {
                    OFFSET 1.62519 -0.234802 1.16502
                  }
                }
              }
              JOINT lMid1
              {
                OFFSET 8.24714 1.18213 3.41376
                CHANNELS 3 Zrotation Xrotation Yrotation
                JOINT lMid2
                {
                  OFFSET 3.10165 -0.590103 1.0647
                  CHANNELS 3 Zrotation Xrotation Yrotation
                  End Site
                  {
                    OFFSET 2.48547 -0.328903 0.83742
                  }
                }
              }
              JOINT lRing1
              {
                OFFSET 8.82822 0.546677 1.51678
                CHANNELS 3 Zrotation Xrotation Yrotation
                JOINT lRing2
                {
                  OFFSET 2.60934 -0.819778 -0.0198488
                  CHANNELS 3 Zrotation Xrotation Yrotation
                  End Site
                  {
                    OFFSET 2.33842 -0.294052 0.168128
                  }
                }
              }
              JOINT lPinky1
              {
                OFFSET 8.27202 -0.0477905 -0.4584
                CHANNELS 3 Zrotation Xrotation Yrotation
                JOINT lPinky2
                {
                  OFFSET 1.82734 -0.647385 -0.700984
                  CHANNELS 3 Zrotation Xrotation Yrotation
                  End Site
                  {
                    OFFSET 1.69225 -0.51767 -0.607171
                  }
                }
              }
            }
          }
        }
      }
    }
  }
  JOINT rButtock
  {
    OFFSET -8.77824 4.35084 1.2192
    CHANNELS 3 Zrotation Xrotation Yrotation
    JOINT rThigh
    {
      OFFSET 0 -1.70687 -2.19456
      CHANNELS 3 Zrotation Xrotation Yrotation
      JOINT rShin
      {
        OFFSET 0 -36.8199 0.73152
        CHANNELS 3 Zrotation Xrotation Yrotation
        JOINT rFoot
        {
          OFFSET 0.73152 -45.1104 -5.12064
          CHANNELS 3 Zrotation Xrotation Yrotation
          End Site
          {
            OFFSET -1.1221 -3.69964 12.103
          }
        }
      }
    }
  }
  JOINT lButtock
  {
    OFFSET 8.77824 4.35084 1.2192
    CHANNELS 3 Zrotation Xrotation Yrotation
    JOINT lThigh
    {
      OFFSET 0 -1.70687 -2.19456
      CHANNELS 3 Zrotation Xrotation Yrotation
      JOINT lShin
      {
        OFFSET 0 -36.8199 0.73152
        CHANNELS 3 Zrotation Xrotation Yrotation
        JOINT lFoot
        {
          OFFSET -0.73152 -45.1104 -5.12064
          CHANNELS 3 Zrotation Xrotation Yrotation
          End Site
          {
            OFFSET 1.1221 -3.69964 12.103
          }
        }
      }
    }
  }
}
MOTION
Frames:	6
Frame Time:	0.00833333
4.1223 57.0086 -5.1366000000000005 -153.921839 56.534323 -161.379777 15.014214 16.052981 -3.628099 0.23046 -7.522901 22.649961 10.428102 23.937829 99.832721 -31.823746 12.472895 -95.806275 0.000402 -0.0 -0.004171 0.000402 -0.0 -0.004171 -150.168835 21.535137 155.274986 120.168426 -30.003721 139.692954 -20.642957 -4.316406 43.52682 0.04161 11.495092 1.773136 -6.401134 6.175779 1.31852 -10.408529 10.762472 12.559157 -14.229262 19.203148 9.559978 -166.100863 -16.889397 110.201254 -160.673258 -6.66775 143.245483 -1.398649 12.594364 2.560686 -0.00085 0.022653 0.006932 -155.446543 -1.618413 172.043927 -138.441917 -6.229808 -135.659539 3.789311 2.87229 -1.055528 78.72823 68.390453 -81.807748 117.064503 11.753516 -94.601029 -179.127614 40.532206 150.568428 10.206596 43.76649 -4.120674 -4.530425 -4.514279 0.521482 24.405467 21.652833 -19.048798 152.812308 -19.873643 -121.571789 12.577374 37.049058 -3.643959 165.289518 -21.385163 -144.902129 42.529172 58.274295 -36.57416 145.060739 -3.30924 178.08614 -9.049016 -14.076381 10.954275 -12.989699 44.344076 -10.761573 -38.0146 80.962966 2.235739 -179.991134 75.750033 -0.006066 108.61914 77.781845 70.747004 9.468678 53.460071 168.263805 29.468822 22.790646 148.676184 0.001067 -0.000391 -0.0 73.061722 -50.082411 -161.075676 98.119898 -51.271659 57.813576 -114.918701 -22.58207 159.380058
4.2249 56.9201 -5.173500000000001 -153.864539 56.515834 -161.218947 14.853336 15.900147 -0.0 -0.103325 -7.496681 19.036235 8.392387 18.141852 65.423759 -27.229708 -6.262613 -65.941353 -0.004095 0.0 -0.005782 -0.00339 0.0 -0.001326 3.816512 -34.439109 -6.652911 68.315535 30.945771 -33.297404 179.411931 -5.264291 95.844141 160.677418 -30.786891 141.236536 -2.608296 2.554609 0.457614 -26.828638 21.575011 24.990232 -108.427664 34.160816 91.74278 -168.613864 -18.824095 116.110565 6.532882 -20.41494 -2.718706 29.317107 -60.230163 6.430694 -69.29565 72.947963 87.016012 -59.595702 -82.200462 -76.579594 -150.031472 28.966104 -145.936399 -11.240607 -25.28784 -13.258873 157.796813 -22.115346 -165.467815 42.398697 24.183628 20.515268 -171.23693 48.717702 144.346174 13.484183 50.265755 -5.780219 -173.996837 -22.922181 -88.049523 -46.65759 -74.740919 -32.842079 50.386404 40.826103 -40.024974 -12.418209 -9.16941 3.605808 -13.807965 -42.122438 2.983956 88.778549 64.026603 -80.36585 145.12049 1.974272 179.749212 67.301209 87.681203 -80.413574 24.990114 -37.659472 24.059397 153.51626 36.040123 147.905386 -179.979527 75.749841 -0.014008 118.371491 76.870739 -117.741593 -0.445966 -54.247654 54.178154 29.727573 -1.088218 94.636242 -179.9992 75.751205 -0.0 -142.365988 0.087269 90.113181 82.327051 -7.384269 -99.052051 39.480207 -1.507423 -2.146218
4.3424 56.8234 -5.2096 -153.944138 56.50311 -161.180631 16.672548 14.944828 -49.268691 3.770396 -5.806083 68.156229 9.319116 19.468799 74.123051 -29.322242 -1.686074 -73.719606 0.003409 0.0 0.002218 -0.002983 0.0 -0.001759 -143.298449 38.837109 147.736695 -23.332621 -12.673517 49.186239 51.809735 49.95112 -120.109312 171.186301 -4.229907 147.142815 -169.572146 -7.253769 89.930109 176.979866 -19.026354 94.124833 -155.194622 -24.300058 122.141749 -162.451279 -19.550724 119.563221 -0.396666 1.151754 0.223374 -162.989537 -3.908698 143.260519 -145.123276 1.97488 -179.747949 -71.463939 87.693531 84.589592 -26.563498 -38.862135 -25.603353 -111.680805 -43.973687 -111.30598 155.417263 -2.95152 -161.718287 55.355971 11.612148 2.268402 -5.166628 -22.365733 60.591385 -156.655592 -35.77162 -139.302908 78.030701 38.688957 -42.412712 87.008634 -3.539595 -66.599359 -37.214446 -57.918247 0.643827 7.746935 31.452369 -7.642868 160.888947 -7.337973 -143.344112 42.49967 58.272054 -36.600085 145.117506 0.267376 179.21329 79.460284 87.68126 -92.761957 -26.963098 80.123177 -10.148341 160.719644 52.404738 148.449685 -7e-05 0.000301 3.5e-05 -10.76611 8.174455 -126.788274 -37.062357 -24.506577 103.628525 5.61947 -25.721144 -13.986156 -0.0 0.000301 8.9e-05 73.13236 -47.901966 0.0 -84.525607 34.954067 142.415969 49.256524 -63.851458 -44.661346
4.446 56.7535 -5.2675 -153.953941 56.587373 -161.200311 14.682767 11.000218 180.0 0.10347 2.71317 -160.886664 -9.934359 28.903063 -107.208896 33.789961 23.176825 103.890223 -0.000532 0.0 -0.004659 5.5e-05 0.0 0.003367 -130.420239 54.549371 134.288043 -73.661319 22.119192 74.314381 -173.273016 -0.262821 -133.131385 -7.266574 33.582007 2.443507 -178.927474 -16.453687 89.422163 -80.446014 10.505425 26.270659 -0.327875 0.529865 0.185923 7.41936 5.816294 0.496768 0.541452 -1.589837 -0.295531 -168.822236 -21.905449 144.327873 -69.296584 72.947846 87.016107 4.936365 29.767804 -0.338845 -1.150898 -2.914275 -1.065015 -154.15724 36.639957 -148.346948 40.727341 63.137221 -43.345084 -12.031155 6.516077 -73.553399 26.352989 -69.674522 2.202349 2.718157 23.522854 -2.214105 153.680545 8.239275 -87.337231 145.988373 -2.03933 -71.60563 -1.504492 -2.485311 0.827965 18.845534 33.452803 -14.33347 -68.980498 -80.155225 -40.574989 -2.939805 0.249457 -0.197215 69.298073 72.947864 -87.016113 158.810329 -27.024216 -179.882701 126.799662 -26.619698 124.512182 -15.655587 38.406226 -5.984431 179.990244 75.751104 0.006675 115.564878 76.192542 -158.821545 36.434611 -44.379148 15.762906 118.681682 12.438735 166.184606 -179.965691 75.749599 -0.028229 -142.157672 -0.065702 89.915427 91.928973 -1.209553 148.268956 110.623539 -34.509853 -167.963878
4.5543 56.6812 -5.3189 -154.175703 56.720806 -161.371009 12.278113 12.476829 112.722655 -4.693372 -0.338745 -93.169925 5.176447 15.358363 42.020745 -18.36824 -16.631136 -43.413532 0.003879 0.0 0.005401 -0.002508 -0.0 0.001421 -83.674594 68.270064 86.806077 81.476217 -25.164284 72.156881 174.771139 9.54805 97.718215 162.991719 -25.977078 142.82639 -175.198628 -12.845986 89.807078 -163.345457 -1.92107 87.549725 179.291623 -59.501997 116.315109 -5.567006 32.363893 2.101153 -36.035743 51.723391 29.831766 80.700063 -77.89989 52.071426 -145.098083 -1.520592 -178.649129 -66.678506 87.686303 80.072877 -144.941683 11.340722 -141.6166 -126.55942 -29.681141 -124.091356 155.613678 -4.236426 -161.991064 -132.397061 -11.804077 176.982113 0.032876 -15.657523 -27.072916 6.077387 33.450454 -2.68834 176.427894 -14.046679 -89.706803 96.568411 14.584039 -38.677263 -2.323964 -3.868434 1.258635 113.171862 38.192837 -89.041606 -173.124474 -66.297889 -137.615176 18.354951 42.153376 -14.739729 145.122964 1.974619 179.748485 -11.646701 26.185821 6.01164 124.848698 -29.038227 122.622002 83.475133 -52.456101 83.670685 -0.000226 -0.000425 0.00029 -11.008374 8.188241 -126.209568 -37.665292 -26.363552 85.043846 -144.182738 -11.407921 3.219332 -0.002377 -0.000798 -0.003565 73.813203 -47.707009 -21.125913 -94.87905 10.845568 -127.875166 168.733106 28.432735 132.424285
4.6531 56.6409 -5.3527 -154.264525 56.81697 -161.367623 14.602049 15.638512 -3.419672 0.119238 -7.485242 22.592104 8.418852 18.187209 65.350578 -27.048929 -6.370968 -65.920213 -0.004721 -0.0 0.004916 0.000388 -0.0 -0.003582 -155.446021 -3.134439 161.757897 -49.876552 8.905307 14.139931 -1.388382 -14.429595 -82.612575 155.340004 -39.712697 137.258903 -10.481768 9.910495 2.492476 -4.73686 5.689781 10.148998 -140.165154 2.326563 115.877979 -157.392919 -3.14022 118.419835 -0.221133 0.63815 0.123352 80.538733 -78.004337 52.069857 -145.120975 0.267512 -179.212984 -73.710087 -78.003315 -95.207378 -103.686452 -45.140197 -101.853675 4.59055 3.318528 -0.277876 155.504771 -3.514661 -161.83796 -131.512347 2.522189 178.541283 -80.282356 -42.686061 -68.410193 160.900706 62.614629 -139.527923 121.364053 30.32955 -71.958324 0.983012 -28.073403 -25.081183 138.493872 4.896362 -114.864624 -8.723204 0.477248 9.127855 111.805036 56.306796 -102.279193 5.910075 23.517279 -5.370775 145.117759 0.186086 179.185351 155.554176 1.410033 179.402911 -44.736205 86.377854 5.369796 76.855062 -53.847059 75.491684 -0.0 -0.001414 -7.8e-05 -12.032838 9.915647 1.863242 15.219965 45.614864 75.276155 -108.621062 -43.930872 -176.535086 -179.991704 75.750684 -0.008559 -141.967104 -0.063615 90.009489 90.635988 -0.785297 162.761848 -64.099869 84.885612 148.321878
